<?xml version="1.0" standalone="no"?>
<!DOCTYPE svg PUBLIC "-//W3C//DTD SVG 20010904//EN"
 "http://www.w3.org/TR/2001/REC-SVG-20010904/DTD/svg10.dtd">
<svg version="1.0" xmlns="http://www.w3.org/2000/svg"
 width="214.000000pt" height="214.000000pt" viewBox="0 0 214.000000 214.000000"
 preserveAspectRatio="xMidYMid meet">

<g transform="translate(0.000000,214.000000) scale(0.100000,-0.100000)"
fill="#000000" stroke="none">
<path d="M1392 1944 l-22 -15 0 -694 0 -694 30 -35 c22 -25 56 -44 123 -69
136 -52 133 -52 162 -23 l25 25 0 670 c0 450 -3 679 -11 698 -18 49 -50 72
-155 113 -116 45 -121 46 -152 24z"/>
<path d="M480 1787 l-25 -13 -3 -693 c-2 -682 -2 -694 18 -726 17 -28 40 -41
135 -79 63 -25 121 -46 128 -46 8 0 23 10 35 23 l22 23 0 673 c0 605 -2 677
-16 708 -21 43 -36 53 -159 103 -112 46 -102 44 -135 27z"/>
<path d="M926 1464 c-14 -13 -16 -48 -16 -228 0 -266 -3 -261 145 -323 113
-47 146 -52 175 -23 19 19 20 33 20 215 0 265 -4 274 -168 339 -102 40 -133
44 -156 20z"/>
</g>
</svg>
